<svg width="11" height="10" viewBox="0 0 11 10" fill="none" xmlns="http://www.w3.org/2000/svg">
<path d="M6.8017 5C6.16211 4.4061 5.16332 4.4061 4.52373 5L9.68262 9.79038C9.98362 10.0699 10.4537 10.0699 10.7547 9.79038C11.0818 9.48663 11.0818 8.97434 10.7547 8.6706L6.8017 5Z" fill="#D9D9D9"/>
<path d="M6.8017 5C6.16211 4.4061 5.16332 4.4061 4.52373 5L9.68262 9.79038C9.98362 10.0699 10.4537 10.0699 10.7547 9.79038C11.0818 9.48663 11.0818 8.97434 10.7547 8.6706L6.8017 5Z" fill="url(#paint0_linear_10_676)"/>
<path d="M4.52373 5L5.09322 5.52881C5.41302 5.82576 5.91241 5.82576 6.2322 5.52881L10.7547 1.3294C11.0818 1.02566 11.0818 0.513372 10.7547 0.209624C10.4537 -0.0698746 9.98362 -0.0698746 9.68262 0.209624L4.52373 5Z" fill="#D9D9D9"/>
<path d="M4.52373 5L5.09322 5.52881C5.41302 5.82576 5.91241 5.82576 6.2322 5.52881L10.7547 1.3294C11.0818 1.02566 11.0818 0.513372 10.7547 0.209624C10.4537 -0.0698746 9.98362 -0.0698746 9.68262 0.209624L4.52373 5Z" fill="url(#paint1_linear_10_676)"/>
<path d="M4.1983 5C4.83789 4.4061 5.83668 4.4061 6.47627 5L1.31738 9.79038C1.01638 10.0699 0.546336 10.0699 0.245336 9.79038C-0.0817785 9.48663 -0.0817784 8.97434 0.245336 8.6706L4.1983 5Z" fill="#D9D9D9"/>
<path d="M4.1983 5C4.83789 4.4061 5.83668 4.4061 6.47627 5L1.31738 9.79038C1.01638 10.0699 0.546336 10.0699 0.245336 9.79038C-0.0817785 9.48663 -0.0817784 8.97434 0.245336 8.6706L4.1983 5Z" fill="url(#paint2_linear_10_676)"/>
<path d="M6.47627 5L5.90678 5.52881C5.58698 5.82576 5.08759 5.82576 4.7678 5.52881L0.245336 1.3294C-0.0817787 1.02566 -0.0817787 0.513372 0.245336 0.209624C0.546336 -0.0698746 1.01638 -0.0698746 1.31738 0.209624L6.47627 5Z" fill="#D9D9D9"/>
<path d="M6.47627 5L5.90678 5.52881C5.58698 5.82576 5.08759 5.82576 4.7678 5.52881L0.245336 1.3294C-0.0817787 1.02566 -0.0817787 0.513372 0.245336 0.209624C0.546336 -0.0698746 1.01638 -0.0698746 1.31738 0.209624L6.47627 5Z" fill="url(#paint3_linear_10_676)"/>
<defs>
<linearGradient id="paint0_linear_10_676" x1="-0.331236" y1="-0.288255" x2="6.8276" y2="-0.0260678" gradientUnits="userSpaceOnUse">
<stop stop-color="#58C3FF"/>
<stop offset="0.519231" stop-color="#2CAEF8"/>
<stop offset="1" stop-color="#009AF1"/>
</linearGradient>
<linearGradient id="paint1_linear_10_676" x1="-0.331236" y1="-0.288255" x2="6.8276" y2="-0.0260678" gradientUnits="userSpaceOnUse">
<stop stop-color="#58C3FF"/>
<stop offset="0.519231" stop-color="#2CAEF8"/>
<stop offset="1" stop-color="#009AF1"/>
</linearGradient>
<linearGradient id="paint2_linear_10_676" x1="-0.331236" y1="-0.288255" x2="6.8276" y2="-0.0260678" gradientUnits="userSpaceOnUse">
<stop stop-color="#58C3FF"/>
<stop offset="0.519231" stop-color="#2CAEF8"/>
<stop offset="1" stop-color="#009AF1"/>
</linearGradient>
<linearGradient id="paint3_linear_10_676" x1="-0.331236" y1="-0.288255" x2="6.8276" y2="-0.0260678" gradientUnits="userSpaceOnUse">
<stop stop-color="#58C3FF"/>
<stop offset="0.519231" stop-color="#2CAEF8"/>
<stop offset="1" stop-color="#009AF1"/>
</linearGradient>
</defs>
</svg>
