<svg width="446" height="446" viewBox="0 0 446 446" fill="none" xmlns="http://www.w3.org/2000/svg">
<rect width="446" height="446" fill="white"/>
<path d="M178.154 278.768C178.401 268.902 178.598 258.986 178.697 249.119C178.746 242.804 177.069 241.226 170.902 241.226C168.633 241.226 166.364 241.374 164.094 241.078C161.43 240.732 158.964 239.696 158.372 236.687C157.78 233.579 159.161 231.261 161.924 229.781C166.018 227.61 170.113 225.587 174.504 223.367C173.468 219.273 172.826 215.375 178.006 213.698C176.082 198.75 173.122 184.542 165.278 171.814C164.785 171.025 164.489 170.137 164.144 169.298C161.233 162.046 163.009 159.58 170.754 160.813C174.898 161.454 178.845 163.033 182.89 164.266C183.926 164.562 184.913 165.105 186.245 165.697C189.156 158.938 192.855 153.068 200.009 150.206C197.493 144.583 197.098 139.403 202.179 135.456C205.978 132.496 210.763 132.693 214.71 135.999C219.298 139.896 218.706 144.829 216.338 150.009C222.948 153.216 227.29 158.396 229.855 165.154C233.604 163.872 237.107 162.441 240.758 161.553C243.422 160.862 246.234 160.714 248.996 160.665C252.252 160.665 253.683 162.638 252.844 165.796C252.351 167.67 251.562 169.496 250.575 171.173C243.915 182.569 240.659 195.1 238.439 207.926C237.946 210.689 237.896 213.205 240.856 215.227C243.668 217.151 242.78 220.111 240.955 223.17C243.274 224.403 245.543 225.538 247.763 226.673C250.032 227.857 252.4 228.892 254.62 230.224C256.939 231.655 257.926 233.925 257.383 236.589C256.84 239.203 254.966 240.634 252.351 240.831C249.588 241.078 246.826 241.078 244.014 241.127C238.932 241.176 237.156 242.804 237.107 247.984C237.008 255.73 236.663 263.475 237.206 271.171C238.044 283.06 239.228 294.949 240.955 306.74C242.238 315.521 245.346 323.858 249.786 331.653C250.526 332.886 251.315 334.07 252.154 335.205H322.354L274.748 253.806C288.463 247.787 298.773 239.154 305.63 227.906C312.488 216.658 315.941 203.535 315.941 188.489C315.941 171.765 312.636 157.606 305.976 146.013C299.316 134.42 289.153 125.54 275.439 119.324C261.724 113.108 244.112 110 222.702 110H123V335.156H163.798C167.646 329.581 170.409 323.217 172.481 316.36C176.181 304.076 177.908 291.447 178.204 278.62L178.154 278.768Z" fill="#151419"/>
</svg>
