<svg width="240" height="56" viewBox="0 0 240 56" fill="none" xmlns="http://www.w3.org/2000/svg">
<path d="M62.7457 19.9656C61.8866 17.9104 60.7053 16.2204 59.1946 14.9028C57.684 13.5851 55.9514 12.5969 53.9897 11.9596C52.028 11.3223 49.9303 11 47.6893 11C45.4484 11 43.3865 11.3223 41.4105 11.9596C39.4345 12.5969 37.7019 13.578 36.2056 14.9028C34.7092 16.2276 33.5351 17.9176 32.6831 19.9656C31.8239 22.0209 31.4015 24.4628 31.4015 27.2985V28.2295C31.4015 31.187 31.8311 33.7363 32.6831 35.8846C33.5351 38.0329 34.7164 39.7731 36.2056 41.1122C37.7019 42.4513 39.4345 43.4324 41.4105 44.0554C43.3865 44.6784 45.4771 44.9863 47.6893 44.9863C49.9016 44.9863 52.028 44.6784 53.9897 44.0554C55.9514 43.4324 57.684 42.4441 59.1946 41.0907C60.7053 39.7373 61.8866 37.9828 62.7457 35.8417C63.6049 33.7005 64.0273 31.1583 64.0273 28.2295V27.2985C64.0273 24.4628 63.5977 22.0209 62.7457 19.9656ZM53.3883 28.2295C53.3883 30.3133 53.1377 31.9604 52.6437 33.1563C52.1426 34.3522 51.4624 35.2115 50.589 35.7271C49.7155 36.2427 48.749 36.5005 47.6965 36.5005C46.6441 36.5005 45.6919 36.2427 44.847 35.7271C44.0094 35.2115 43.3221 34.3593 42.7923 33.1563C42.2625 31.9604 41.9976 30.3133 41.9976 28.2295V27.2985C41.9976 25.3078 42.2625 23.761 42.7923 22.651C43.3221 21.5482 44.0094 20.7462 44.847 20.2449C45.6847 19.7437 46.6369 19.5002 47.6965 19.5002C48.7561 19.5002 49.7155 19.7508 50.589 20.2449C51.4624 20.7462 52.1426 21.5482 52.6437 22.651C53.1449 23.7538 53.3883 25.3078 53.3883 27.2985V28.2295Z" fill="#2A2A2A"/>
<path d="M81.2099 44.9928C78.1313 44.9928 75.5467 44.6061 73.4633 43.8256C71.3799 43.045 69.7834 41.9064 68.6808 40.3955C67.5782 38.8845 66.9267 37.0082 66.7406 34.7668H77.1004C77.2865 35.6978 77.6946 36.3781 78.3175 36.8006C78.9403 37.2231 79.9069 37.4308 81.2099 37.4308C82.6418 37.4308 83.6728 37.2517 84.3171 36.8937C84.9543 36.5356 85.2765 35.9699 85.2765 35.1894C85.2765 34.5664 85.0617 34.0794 84.625 33.7214C84.1882 33.3633 83.4508 33.041 82.4055 32.7618C81.3603 32.4825 79.9856 32.1388 78.2745 31.7377C76.1267 31.2723 74.2652 30.6421 72.6973 29.8472C71.1222 29.0523 69.8979 27.9639 69.0101 26.5818C68.1224 25.1997 67.6785 23.4023 67.6785 21.1895C67.6785 18.9768 68.2298 17.0719 69.3323 15.5609C70.4349 14.0499 72.0171 12.9185 74.0719 12.1523C76.1267 11.3932 78.5036 11.0065 81.2099 11.0065C84.131 11.0065 86.5723 11.3861 88.5126 12.1523C90.4599 12.9185 91.9634 14.0285 93.0373 15.4893C94.1113 16.9502 94.77 18.7118 95.0205 20.767H84.6106C84.4889 20.0509 84.1596 19.5067 83.6298 19.1343C83.1 18.7619 82.291 18.5757 81.2027 18.5757C80.05 18.5757 79.2339 18.7619 78.7542 19.1343C78.2745 19.5067 78.0311 20.0366 78.0311 20.7241C78.0311 21.5619 78.5179 22.2064 79.4988 22.636C80.4796 23.0657 82.0547 23.4739 84.2384 23.8463C85.7347 24.1613 87.1737 24.5409 88.5555 24.992C89.9373 25.4432 91.1687 26.059 92.2427 26.8396C93.3166 27.6201 94.1542 28.6012 94.7628 29.7828C95.3713 30.9644 95.6721 32.4467 95.6721 34.2155C95.6721 36.5786 95.0778 38.555 93.8965 40.1448C92.7152 41.7345 91.0398 42.9376 88.8777 43.7611C86.7155 44.5846 84.1524 45 81.1956 45L81.2099 44.9928Z" fill="#2A2A2A"/>
<path d="M99.4094 44.3417V11.6587H123.215V19.407H109.776V25.4795H121.819V32.8052H109.776V44.3417H99.4094Z" fill="#2A2A2A"/>
<path d="M137.548 11.6587H127.138V44.3417H137.548V11.6587Z" fill="#2A2A2A"/>
<path d="M143.011 44.3417V11.6587H151.738L163.222 27.5347V11.6587H173.345V44.3417H164.339L152.905 28.4657V44.3417H143.011Z" fill="#2A2A2A"/>
<path d="M178.479 44.3417V11.6587H203.222V19.407H188.795V24.2192H201.819V31.0795H188.795V36.5863H203.222V44.3417H178.479Z" fill="#2A2A2A"/>
<path d="M205.692 44.3417L215.873 27.3915L206.164 11.6587H217.691L222.968 20.388L228.194 11.6587H239.535L229.877 27.2483L240 44.3417H228.38L222.781 34.2088L217.133 44.3417H205.692Z" fill="#2A2A2A"/>
<path d="M8.00429 36.1281C8.04009 34.6959 8.06874 33.2565 8.08306 31.8243C8.09022 30.9077 7.84678 30.6785 6.95185 30.6785C6.62251 30.6785 6.29318 30.7 5.96385 30.657C5.57724 30.6069 5.21926 30.4565 5.13335 30.0197C5.04743 29.5685 5.2479 29.232 5.64883 29.0172C6.24307 28.7021 6.83731 28.4085 7.4745 28.0862C7.32415 27.4919 7.23107 26.9261 7.98282 26.6827C7.7036 24.5129 7.27403 22.4505 6.13567 20.6029C6.06407 20.4884 6.02112 20.3595 5.971 20.2377C5.54859 19.1851 5.80633 18.827 6.93037 19.006C7.53177 19.0991 8.10452 19.3283 8.6916 19.5073C8.84195 19.5503 8.98515 19.6291 9.17846 19.715C9.60087 18.7339 10.1378 17.8817 11.1759 17.4664C10.8108 16.65 10.7535 15.8981 11.491 15.3253C12.0422 14.8956 12.7367 14.9242 13.3095 15.404C13.9753 15.9697 13.8894 16.6859 13.5457 17.4378C14.5051 17.9032 15.1351 18.6551 15.5074 19.6362C16.0516 19.45 16.5599 19.2423 17.0897 19.1134C17.4763 19.0132 17.8844 18.9917 18.2853 18.9845C18.7578 18.9845 18.9655 19.271 18.8438 19.7293C18.7722 20.0014 18.6576 20.2664 18.5144 20.5099C17.5479 22.1641 17.0754 23.983 16.7532 25.8448C16.6816 26.2459 16.6744 26.6111 17.104 26.9047C17.5121 27.1839 17.3832 27.6136 17.1183 28.0576C17.4548 28.2366 17.7842 28.4013 18.1063 28.566C18.4357 28.7379 18.7793 28.8882 19.1015 29.0816C19.438 29.2893 19.5812 29.6187 19.5024 30.0054C19.4237 30.3849 19.1516 30.5926 18.7722 30.6212C18.3712 30.657 17.9703 30.657 17.5622 30.6642C16.8248 30.6714 16.567 30.9077 16.5599 31.6596C16.5456 32.7839 16.4954 33.9082 16.5742 35.0253C16.6959 36.7511 16.8677 38.4769 17.1183 40.1884C17.3045 41.463 17.7555 42.6733 18.3998 43.8047C18.5072 43.9837 18.6218 44.1556 18.7435 44.3203H28.9315L22.0226 32.5046C24.0129 31.6309 25.5092 30.3778 26.5044 28.745C27.4996 27.1123 28.0007 25.2075 28.0007 23.0234C28.0007 20.5958 27.521 18.5405 26.5545 16.8577C25.588 15.1748 24.1131 13.8859 22.1228 12.9836C20.1325 12.0813 17.5765 11.6301 14.4693 11.6301H0V44.3131H5.92088C6.47932 43.5039 6.88026 42.5802 7.18096 41.5848C7.71792 39.8017 7.9685 37.9684 8.01146 36.1066L8.00429 36.1281Z" fill="#2A2A2A"/>
</svg>
