<svg width="120" height="42" viewBox="0 0 120 42" fill="none" xmlns="http://www.w3.org/2000/svg">
<g clip-path="url(#clip0_19_785)">
<path d="M8.50742 29.6042C8.54547 28.0927 8.57592 26.5737 8.59113 25.0622C8.59874 24.0948 8.34001 23.853 7.38882 23.853C7.03878 23.853 6.68875 23.8756 6.33872 23.8303C5.9278 23.7774 5.54733 23.6187 5.45601 23.1577C5.3647 22.6815 5.57776 22.3264 6.0039 22.0996C6.63549 21.7671 7.26708 21.4573 7.94432 21.1172C7.78452 20.4899 7.68559 19.8928 8.48459 19.6359C8.18782 17.346 7.73125 15.1694 6.52134 13.2196C6.44524 13.0986 6.39959 12.9626 6.34632 12.8341C5.89736 11.7232 6.1713 11.3453 7.36599 11.5342C8.00519 11.6325 8.61394 11.8743 9.23792 12.0632C9.39772 12.1086 9.54993 12.1918 9.75539 12.2824C10.2043 11.2471 10.775 10.3477 11.8784 9.90938C11.4903 9.04783 11.4295 8.2543 12.2132 7.6497C12.7992 7.19625 13.5373 7.22646 14.1461 7.73282C14.8537 8.32986 14.7624 9.08563 14.3972 9.87917C15.4168 10.3704 16.0865 11.1639 16.4822 12.1993C17.0605 12.0028 17.6008 11.7836 18.1639 11.6476C18.5748 11.5418 19.0085 11.5191 19.4347 11.5116C19.9369 11.5116 20.1576 11.8138 20.0282 12.2975C19.9521 12.5847 19.8304 12.8644 19.6782 13.1213C18.6509 14.8671 18.1487 16.7867 17.8062 18.7517C17.7301 19.1749 17.7225 19.5603 18.1791 19.8702C18.6128 20.1649 18.4759 20.6183 18.1943 21.0869C18.552 21.2758 18.902 21.4497 19.2444 21.6235C19.5945 21.8049 19.9597 21.9636 20.3021 22.1676C20.6598 22.3868 20.812 22.7345 20.7283 23.1426C20.6446 23.5431 20.3554 23.7623 19.9521 23.7925C19.526 23.8303 19.0998 23.8303 18.6661 23.8378C17.8823 23.8454 17.6084 24.0948 17.6008 24.8883C17.5856 26.0749 17.5323 27.2614 17.616 28.4404C17.7454 30.2617 17.928 32.0831 18.1943 33.8893C18.3922 35.2345 18.8716 36.5118 19.5564 37.7058C19.6705 37.8948 19.7923 38.0762 19.9217 38.25H30.75L23.4068 25.7801C25.5223 24.8581 27.1126 23.5356 28.1704 21.8124C29.2281 20.0893 29.7608 18.079 29.7608 15.774C29.7608 13.212 29.2509 11.043 28.2236 9.26696C27.1964 7.49095 25.6288 6.13062 23.5134 5.17838C21.3979 4.22613 18.6813 3.75 15.3788 3.75H0V38.2424H6.29305C6.88659 37.3884 7.31273 36.4135 7.63233 35.363C8.20304 33.4812 8.46938 31.5465 8.51503 29.5815L8.50742 29.6042Z" fill="url(#paint0_linear_19_785)"/>
<path d="M41.01 27.5V14.54H46.482C46.608 14.54 46.776 14.546 46.986 14.558C47.202 14.564 47.394 14.582 47.562 14.612C48.336 14.732 48.969 14.987 49.461 15.377C49.959 15.767 50.325 16.259 50.559 16.853C50.793 17.441 50.91 18.098 50.91 18.824C50.91 19.91 50.64 20.84 50.1 21.614C49.56 22.382 48.714 22.856 47.562 23.036L46.482 23.108H43.458V27.5H41.01ZM48.318 27.5L45.762 22.226L48.282 21.74L51.09 27.5H48.318ZM43.458 20.822H46.374C46.5 20.822 46.638 20.816 46.788 20.804C46.938 20.792 47.076 20.768 47.202 20.732C47.532 20.642 47.787 20.492 47.967 20.282C48.147 20.066 48.27 19.829 48.336 19.571C48.408 19.307 48.444 19.058 48.444 18.824C48.444 18.59 48.408 18.344 48.336 18.086C48.27 17.822 48.147 17.585 47.967 17.375C47.787 17.159 47.532 17.006 47.202 16.916C47.076 16.88 46.938 16.856 46.788 16.844C46.638 16.832 46.5 16.826 46.374 16.826H43.458V20.822ZM57.4426 27.77C56.4646 27.77 55.6066 27.551 54.8686 27.113C54.1306 26.675 53.5546 26.072 53.1406 25.304C52.7326 24.53 52.5286 23.642 52.5286 22.64C52.5286 21.626 52.7386 20.735 53.1586 19.967C53.5786 19.193 54.1576 18.59 54.8956 18.158C55.6336 17.726 56.4826 17.51 57.4426 17.51C58.4206 17.51 59.2786 17.729 60.0166 18.167C60.7606 18.605 61.3396 19.211 61.7536 19.985C62.1676 20.753 62.3746 21.638 62.3746 22.64C62.3746 23.648 62.1646 24.539 61.7446 25.313C61.3306 26.081 60.7516 26.684 60.0076 27.122C59.2696 27.554 58.4146 27.77 57.4426 27.77ZM57.4426 25.484C58.2286 25.484 58.8136 25.22 59.1976 24.692C59.5876 24.158 59.7826 23.474 59.7826 22.64C59.7826 21.776 59.5846 21.086 59.1886 20.57C58.7986 20.054 58.2166 19.796 57.4426 19.796C56.9086 19.796 56.4706 19.916 56.1286 20.156C55.7866 20.396 55.5316 20.729 55.3636 21.155C55.2016 21.581 55.1206 22.076 55.1206 22.64C55.1206 23.51 55.3156 24.203 55.7056 24.719C56.1016 25.229 56.6806 25.484 57.4426 25.484ZM67.8881 27.77C66.6641 27.77 65.6741 27.494 64.9181 26.942C64.1681 26.384 63.7121 25.598 63.5501 24.584L66.0521 24.206C66.1541 24.662 66.3791 25.019 66.7271 25.277C67.0811 25.535 67.5281 25.664 68.0681 25.664C68.5121 25.664 68.8541 25.58 69.0941 25.412C69.3341 25.238 69.4541 24.998 69.4541 24.692C69.4541 24.5 69.4061 24.347 69.3101 24.233C69.2141 24.113 68.9981 23.996 68.6621 23.882C68.3321 23.768 67.8161 23.618 67.1141 23.432C66.3221 23.228 65.6891 23 65.2151 22.748C64.7411 22.496 64.3991 22.196 64.1891 21.848C63.9791 21.494 63.8741 21.068 63.8741 20.57C63.8741 19.946 64.0331 19.406 64.3511 18.95C64.6691 18.488 65.1161 18.134 65.6921 17.888C66.2741 17.636 66.9581 17.51 67.7441 17.51C68.5061 17.51 69.1811 17.627 69.7691 17.861C70.3571 18.095 70.8311 18.428 71.1911 18.86C71.5571 19.292 71.7821 19.802 71.8661 20.39L69.3641 20.84C69.3221 20.48 69.1661 20.195 68.8961 19.985C68.6261 19.775 68.2601 19.652 67.7981 19.616C67.3481 19.586 66.9851 19.646 66.7091 19.796C66.4391 19.946 66.3041 20.162 66.3041 20.444C66.3041 20.612 66.3611 20.753 66.4751 20.867C66.5951 20.981 66.8381 21.098 67.2041 21.218C67.5761 21.338 68.1401 21.494 68.8961 21.686C69.6341 21.878 70.2251 22.103 70.6691 22.361C71.1191 22.613 71.4461 22.919 71.6501 23.279C71.8541 23.633 71.9561 24.062 71.9561 24.566C71.9561 25.562 71.5961 26.345 70.8761 26.915C70.1561 27.485 69.1601 27.77 67.8881 27.77ZM73.9338 27.5V14.54H81.8538V16.988H76.3818V19.796H80.7738V22.244H76.3818V27.5H73.9338ZM83.6588 16.43V14.27H86.1068V16.43H83.6588ZM83.6588 27.5V17.78H86.1068V27.5H83.6588ZM95.4289 27.5V22.91C95.4289 22.688 95.4169 22.406 95.3929 22.064C95.3689 21.716 95.2939 21.368 95.1679 21.02C95.0419 20.672 94.8349 20.381 94.5469 20.147C94.2649 19.913 93.8629 19.796 93.3409 19.796C93.1309 19.796 92.9059 19.829 92.6659 19.895C92.4259 19.961 92.2009 20.09 91.9909 20.282C91.7809 20.468 91.6069 20.744 91.4689 21.11C91.3369 21.476 91.2709 21.962 91.2709 22.568L89.8669 21.902C89.8669 21.134 90.0229 20.414 90.3349 19.742C90.6469 19.07 91.1149 18.527 91.7389 18.113C92.3689 17.699 93.1609 17.492 94.1149 17.492C94.8769 17.492 95.4979 17.621 95.9779 17.879C96.4579 18.137 96.8299 18.464 97.0939 18.86C97.3639 19.256 97.5559 19.67 97.6699 20.102C97.7839 20.528 97.8529 20.918 97.8769 21.272C97.9009 21.626 97.9129 21.884 97.9129 22.046V27.5H95.4289ZM88.7869 27.5V17.78H90.9649V21.002H91.2709V27.5H88.7869ZM100.248 27.5V14.54H108.708V16.826H102.696V19.598H107.628V21.884H102.696V25.214H108.708V27.5H100.248ZM109.785 27.5L113.259 22.586L109.857 17.78H112.737L114.681 20.66L116.589 17.78H119.469L116.067 22.586L119.559 27.5H116.679L114.681 24.512L112.665 27.5H109.785Z" fill="url(#paint1_linear_19_785)"/>
</g>
<defs>
<linearGradient id="paint0_linear_19_785" x1="0.11881" y1="3.75" x2="32.292" y2="5.37536" gradientUnits="userSpaceOnUse">
<stop stop-color="#58C3FF"/>
<stop offset="0.519231" stop-color="#2CAEF8"/>
<stop offset="1" stop-color="#009AF1"/>
</linearGradient>
<linearGradient id="paint1_linear_19_785" x1="40.0591" y1="14.5" x2="114.873" y2="40.5952" gradientUnits="userSpaceOnUse">
<stop stop-color="#58C3FF"/>
<stop offset="0.519231" stop-color="#2CAEF8"/>
<stop offset="1" stop-color="#009AF1"/>
</linearGradient>
<clipPath id="clip0_19_785">
<rect width="119.75" height="42" fill="white"/>
</clipPath>
</defs>
</svg>
