<svg width="44" height="44" viewBox="0 0 44 44" fill="none" xmlns="http://www.w3.org/2000/svg">
<rect width="44" height="44" rx="8" fill="url(#paint0_linear_373_760)"/>
<path d="M14.5625 32.1L12.7687 30.2333L29.4375 12.9L31.2313 14.78L14.5625 32.1ZM27.3876 32.5C26.542 32.5 25.769 32.2867 25.0685 31.86C24.3767 31.4244 23.8215 30.8467 23.4029 30.1267C22.9844 29.3978 22.7751 28.5889 22.7751 27.7C22.7751 26.8289 22.9887 26.0289 23.4158 25.3C23.8428 24.5711 24.4066 23.9889 25.107 23.5533C25.8074 23.1178 26.5676 22.9 27.3876 22.9C28.2332 22.9 29.0062 23.1178 29.7066 23.5533C30.407 23.98 30.9622 24.5578 31.3722 25.2867C31.7907 26.0067 32 26.8111 32 27.7C32 28.5889 31.7907 29.3978 31.3722 30.1267C30.9622 30.8467 30.407 31.4244 29.7066 31.86C29.0062 32.2867 28.2332 32.5 27.3876 32.5ZM27.3876 30.0867C27.8061 30.0867 28.1862 29.98 28.5279 29.7667C28.8781 29.5444 29.1557 29.2511 29.3607 28.8867C29.5742 28.5222 29.681 28.1267 29.681 27.7C29.681 27.2733 29.5742 26.8778 29.3607 26.5133C29.1557 26.1489 28.8781 25.86 28.5279 25.6467C28.1862 25.4244 27.8061 25.3133 27.3876 25.3133C26.9776 25.3133 26.5975 25.4244 26.2473 25.6467C25.9056 25.86 25.628 26.1489 25.4145 26.5133C25.2095 26.8778 25.107 27.2733 25.107 27.7C25.107 28.1267 25.2095 28.5222 25.4145 28.8867C25.628 29.2511 25.9056 29.5444 26.2473 29.7667C26.5975 29.98 26.9776 30.0867 27.3876 30.0867ZM16.6124 22.1C15.7668 22.1 14.9938 21.8867 14.2934 21.46C13.593 21.0244 13.0335 20.4467 12.615 19.7267C12.205 18.9978 12 18.1889 12 17.3C12 16.4289 12.2135 15.6289 12.6406 14.9C13.0677 14.1711 13.6314 13.5889 14.3318 13.1533C15.0322 12.7178 15.7924 12.5 16.6124 12.5C17.458 12.5 18.2268 12.7178 18.9186 13.1533C19.619 13.58 20.1785 14.1578 20.5971 14.8867C21.0156 15.6067 21.2249 16.4111 21.2249 17.3C21.2249 18.1889 21.0156 18.9978 20.5971 19.7267C20.1785 20.4467 19.619 21.0244 18.9186 21.46C18.2268 21.8867 17.458 22.1 16.6124 22.1ZM16.6124 19.6867C17.0224 19.6867 17.4025 19.58 17.7527 19.3667C18.1029 19.1444 18.3805 18.8511 18.5855 18.4867C18.7991 18.1222 18.9058 17.7267 18.9058 17.3C18.9058 16.8733 18.7991 16.4778 18.5855 16.1133C18.3805 15.7489 18.1029 15.46 17.7527 15.2467C17.4025 15.0244 17.0224 14.9133 16.6124 14.9133C16.2024 14.9133 15.8223 15.0244 15.4721 15.2467C15.1305 15.46 14.8529 15.7489 14.6393 16.1133C14.4258 16.4778 14.319 16.8733 14.319 17.3C14.319 17.7267 14.4258 18.1222 14.6393 18.4867C14.8529 18.8511 15.1305 19.1444 15.4721 19.3667C15.8138 19.58 16.1939 19.6867 16.6124 19.6867Z" fill="white"/>
<defs>
<linearGradient id="paint0_linear_373_760" x1="0.170004" y1="-5.66699e-07" x2="46.1761" y2="2.60763" gradientUnits="userSpaceOnUse">
<stop stop-color="#0699FF"/>
<stop offset="0.533654" stop-color="#177BFF"/>
<stop offset="1" stop-color="#285BFF"/>
</linearGradient>
</defs>
</svg>
