<svg width="14" height="22" viewBox="0 0 14 22" fill="none" xmlns="http://www.w3.org/2000/svg">
<path d="M9.33333 11C10.6436 9.7646 12.6897 9.7646 14 11L3.43143 20.9647C2.8148 21.546 1.85187 21.546 1.23524 20.9646C0.565104 20.3328 0.565105 19.2672 1.23524 18.6353L9.33333 11Z" fill="#D9D9D9"/>
<path d="M9.33333 11C10.6436 9.7646 12.6897 9.7646 14 11L3.43143 20.9647C2.8148 21.546 1.85187 21.546 1.23524 20.9646C0.565104 20.3328 0.565105 19.2672 1.23524 18.6353L9.33333 11Z" fill="url(#paint0_linear_10_602)"/>
<path d="M14 11L12.8333 12.1C12.1782 12.7177 11.1551 12.7177 10.5 12.1L1.23523 3.36465C0.565104 2.73281 0.565104 1.66719 1.23523 1.03535C1.85187 0.453955 2.8148 0.453955 3.43143 1.03535L14 11Z" fill="#D9D9D9"/>
<path d="M14 11L12.8333 12.1C12.1782 12.7177 11.1551 12.7177 10.5 12.1L1.23523 3.36465C0.565104 2.73281 0.565104 1.66719 1.23523 1.03535C1.85187 0.453955 2.8148 0.453955 3.43143 1.03535L14 11Z" fill="url(#paint1_linear_10_602)"/>
<defs>
<linearGradient id="paint0_linear_10_602" x1="0.0540923" y1="-2.83349e-07" x2="14.7203" y2="0.528999" gradientUnits="userSpaceOnUse">
<stop stop-color="#58C3FF"/>
<stop offset="0.519231" stop-color="#2CAEF8"/>
<stop offset="1" stop-color="#009AF1"/>
</linearGradient>
<linearGradient id="paint1_linear_10_602" x1="0.0540923" y1="-2.83349e-07" x2="14.7203" y2="0.528999" gradientUnits="userSpaceOnUse">
<stop stop-color="#58C3FF"/>
<stop offset="0.519231" stop-color="#2CAEF8"/>
<stop offset="1" stop-color="#009AF1"/>
</linearGradient>
</defs>
</svg>
