<svg width="14" height="22" viewBox="0 0 14 22" fill="none" xmlns="http://www.w3.org/2000/svg">
<path d="M4.66667 11C3.3564 9.7646 1.31027 9.7646 0 11L10.5686 20.9647C11.1852 21.546 12.1481 21.546 12.7648 20.9646C13.4349 20.3328 13.4349 19.2672 12.7648 18.6353L4.66667 11Z" fill="#D9D9D9"/>
<path d="M4.66667 11C3.3564 9.7646 1.31027 9.7646 0 11L10.5686 20.9647C11.1852 21.546 12.1481 21.546 12.7648 20.9646C13.4349 20.3328 13.4349 19.2672 12.7648 18.6353L4.66667 11Z" fill="url(#paint0_linear_10_604)"/>
<path d="M0 11L1.16667 12.1C1.8218 12.7177 2.84486 12.7177 3.5 12.1L12.7648 3.36465C13.4349 2.73281 13.4349 1.66719 12.7648 1.03535C12.1481 0.453955 11.1852 0.453955 10.5686 1.03535L0 11Z" fill="#D9D9D9"/>
<path d="M0 11L1.16667 12.1C1.8218 12.7177 2.84486 12.7177 3.5 12.1L12.7648 3.36465C13.4349 2.73281 13.4349 1.66719 12.7648 1.03535C12.1481 0.453955 11.1852 0.453955 10.5686 1.03535L0 11Z" fill="url(#paint1_linear_10_604)"/>
<defs>
<linearGradient id="paint0_linear_10_604" x1="13.9459" y1="-2.83349e-07" x2="-0.720349" y2="0.528999" gradientUnits="userSpaceOnUse">
<stop stop-color="#58C3FF"/>
<stop offset="0.519231" stop-color="#2CAEF8"/>
<stop offset="1" stop-color="#009AF1"/>
</linearGradient>
<linearGradient id="paint1_linear_10_604" x1="13.9459" y1="-2.83349e-07" x2="-0.720349" y2="0.528999" gradientUnits="userSpaceOnUse">
<stop stop-color="#58C3FF"/>
<stop offset="0.519231" stop-color="#2CAEF8"/>
<stop offset="1" stop-color="#009AF1"/>
</linearGradient>
</defs>
</svg>
