<svg width="56" height="56" viewBox="0 0 56 56" fill="none" xmlns="http://www.w3.org/2000/svg">
<g filter="url(#filter0_i_373_1164)">
<rect width="56" height="56" rx="12" fill="url(#paint0_linear_373_1164)"/>
<rect x="0.5" y="0.5" width="55" height="55" rx="11.5" stroke="url(#paint1_linear_373_1164)" style="mix-blend-mode:soft-light"/>
<path d="M28 11C18.6262 11 11 18.6262 11 28C11 37.3738 18.6262 45 28 45C37.3738 45 45 37.3738 45 28C45 18.6262 37.3738 11 28 11ZM34.8 34.8C34.1362 35.4638 33.06 35.4638 32.3962 34.8L26.8858 29.2896C26.5107 28.9145 26.3 28.4058 26.3 27.8754V19.5C26.3 18.5611 27.0611 17.8 28 17.8C28.9389 17.8 29.7 18.5611 29.7 19.5V26.4678C29.7 26.9982 29.9107 27.5069 30.2858 27.882L34.8 32.3962C35.4638 33.06 35.4638 34.1362 34.8 34.8Z" fill="url(#paint2_linear_373_1164)"/>
</g>
<defs>
<filter id="filter0_i_373_1164" x="0" y="0" width="56" height="60" filterUnits="userSpaceOnUse" color-interpolation-filters="sRGB">
<feFlood flood-opacity="0" result="BackgroundImageFix"/>
<feBlend mode="normal" in="SourceGraphic" in2="BackgroundImageFix" result="shape"/>
<feColorMatrix in="SourceAlpha" type="matrix" values="0 0 0 0 0 0 0 0 0 0 0 0 0 0 0 0 0 0 127 0" result="hardAlpha"/>
<feOffset dy="4"/>
<feGaussianBlur stdDeviation="4.6"/>
<feComposite in2="hardAlpha" operator="arithmetic" k2="-1" k3="1"/>
<feColorMatrix type="matrix" values="0 0 0 0 0.899038 0 0 0 0 0.951202 0 0 0 0 1 0 0 0 0.1 0"/>
<feBlend mode="normal" in2="shape" result="effect1_innerShadow_373_1164"/>
</filter>
<linearGradient id="paint0_linear_373_1164" x1="28" y1="0" x2="28" y2="56" gradientUnits="userSpaceOnUse">
<stop stop-color="white" stop-opacity="0.1"/>
<stop offset="1" stop-color="white" stop-opacity="0.02"/>
</linearGradient>
<linearGradient id="paint1_linear_373_1164" x1="28" y1="0" x2="28" y2="56" gradientUnits="userSpaceOnUse">
<stop stop-color="white"/>
<stop offset="1" stop-color="white" stop-opacity="0.49"/>
</linearGradient>
<linearGradient id="paint2_linear_373_1164" x1="11" y1="11" x2="45" y2="45" gradientUnits="userSpaceOnUse">
<stop stop-color="#F1F4FE"/>
<stop offset="0.495192" stop-color="#DFE9FE"/>
<stop offset="1" stop-color="#CADDFF"/>
</linearGradient>
</defs>
</svg>
