<svg width="56" height="56" viewBox="0 0 56 56" fill="none" xmlns="http://www.w3.org/2000/svg">
<g filter="url(#filter0_i_373_1154)">
<rect width="56" height="56" rx="12" fill="url(#paint0_linear_373_1154)"/>
<rect x="0.5" y="0.5" width="55" height="55" rx="11.5" stroke="url(#paint1_linear_373_1154)" style="mix-blend-mode:soft-light"/>
<path d="M31.25 11H18.25C17.388 11 16.5614 11.3582 15.9519 11.9958C15.3424 12.6335 15 13.4983 15 14.4V41.6C15 42.5017 15.3424 43.3665 15.9519 44.0042C16.5614 44.6418 17.388 45 18.25 45H37.75C38.612 45 39.4386 44.6418 40.0481 44.0042C40.6576 43.3665 41 42.5017 41 41.6V21.2L31.25 11ZM29.625 22.9V14.4L37.75 22.9H29.625Z" fill="url(#paint2_linear_373_1154)"/>
</g>
<defs>
<filter id="filter0_i_373_1154" x="0" y="0" width="56" height="60" filterUnits="userSpaceOnUse" color-interpolation-filters="sRGB">
<feFlood flood-opacity="0" result="BackgroundImageFix"/>
<feBlend mode="normal" in="SourceGraphic" in2="BackgroundImageFix" result="shape"/>
<feColorMatrix in="SourceAlpha" type="matrix" values="0 0 0 0 0 0 0 0 0 0 0 0 0 0 0 0 0 0 127 0" result="hardAlpha"/>
<feOffset dy="4"/>
<feGaussianBlur stdDeviation="4.6"/>
<feComposite in2="hardAlpha" operator="arithmetic" k2="-1" k3="1"/>
<feColorMatrix type="matrix" values="0 0 0 0 0.899038 0 0 0 0 0.951202 0 0 0 0 1 0 0 0 0.1 0"/>
<feBlend mode="normal" in2="shape" result="effect1_innerShadow_373_1154"/>
</filter>
<linearGradient id="paint0_linear_373_1154" x1="28" y1="0" x2="28" y2="56" gradientUnits="userSpaceOnUse">
<stop stop-color="white" stop-opacity="0.1"/>
<stop offset="1" stop-color="white" stop-opacity="0.02"/>
</linearGradient>
<linearGradient id="paint1_linear_373_1154" x1="28" y1="0" x2="28" y2="56" gradientUnits="userSpaceOnUse">
<stop stop-color="white"/>
<stop offset="1" stop-color="white" stop-opacity="0.49"/>
</linearGradient>
<linearGradient id="paint2_linear_373_1154" x1="15" y1="11" x2="47.8122" y2="36.0917" gradientUnits="userSpaceOnUse">
<stop stop-color="#F1F4FE"/>
<stop offset="0.495192" stop-color="#DFE9FE"/>
<stop offset="1" stop-color="#CADDFF"/>
</linearGradient>
</defs>
</svg>
