<svg width="56" height="56" viewBox="0 0 56 56" fill="none" xmlns="http://www.w3.org/2000/svg">
<g filter="url(#filter0_i_373_1144)">
<rect width="56" height="56" rx="12" fill="url(#paint0_linear_373_1144)"/>
<rect x="0.5" y="0.5" width="55" height="55" rx="11.5" stroke="url(#paint1_linear_373_1144)" style="mix-blend-mode:soft-light"/>
<path d="M16.8964 42.7867C16.0481 43.6422 14.6648 43.6417 13.8171 42.7855C12.9807 41.9406 12.981 40.5796 13.8177 39.7351L39.0932 14.225C39.9462 13.3641 41.3386 13.3668 42.1883 14.2311C43.0225 15.0798 43.0195 16.4413 42.1817 17.2863L16.8964 42.7867ZM37.1589 45C35.7213 45 34.4072 44.648 33.2165 43.944C32.0404 43.2253 31.0965 42.272 30.385 41.084C29.6735 39.8813 29.3177 38.5467 29.3177 37.08C29.3177 35.6427 29.6808 34.3227 30.4068 33.12C31.1328 31.9173 32.0912 30.9567 33.2819 30.238C34.4726 29.5193 35.7649 29.16 37.1589 29.16C38.5964 29.16 39.9105 29.5193 41.1012 30.238C42.2919 30.942 43.2357 31.8953 43.9327 33.098C44.6442 34.286 45 35.6133 45 37.08C45 38.5467 44.6442 39.8813 43.9327 41.084C43.2357 42.272 42.2919 43.2253 41.1012 43.944C39.9105 44.648 38.5964 45 37.1589 45ZM37.1589 41.018C37.8704 41.018 38.5165 40.842 39.0974 40.49C39.6927 40.1233 40.1646 39.6393 40.5131 39.038C40.8761 38.4367 41.0577 37.784 41.0577 37.08C41.0577 36.376 40.8761 35.7233 40.5131 35.122C40.1646 34.5207 39.6927 34.044 39.0974 33.692C38.5165 33.3253 37.8704 33.142 37.1589 33.142C36.4619 33.142 35.8157 33.3253 35.2204 33.692C34.6395 34.044 34.1676 34.5207 33.8046 35.122C33.4561 35.7233 33.2819 36.376 33.2819 37.08C33.2819 37.784 33.4561 38.4367 33.8046 39.038C34.1676 39.6393 34.6395 40.1233 35.2204 40.49C35.8157 40.842 36.4619 41.018 37.1589 41.018ZM18.8411 27.84C17.4036 27.84 16.0895 27.488 14.8988 26.784C13.7081 26.0653 12.757 25.112 12.0455 23.924C11.3485 22.7213 11 21.3867 11 19.92C11 18.4827 11.363 17.1627 12.089 15.96C12.8151 14.7573 13.7734 13.7967 14.9641 13.078C16.1548 12.3593 17.4471 12 18.8411 12C20.2787 12 21.5855 12.3593 22.7617 13.078C23.9524 13.782 24.9035 14.7353 25.615 15.938C26.3265 17.126 26.6823 18.4533 26.6823 19.92C26.6823 21.3867 26.3265 22.7213 25.615 23.924C24.9035 25.112 23.9524 26.0653 22.7617 26.784C21.5855 27.488 20.2787 27.84 18.8411 27.84ZM18.8411 23.858C19.5381 23.858 20.1843 23.682 20.7796 23.33C21.375 22.9633 21.8469 22.4793 22.1954 21.878C22.5584 21.2767 22.7399 20.624 22.7399 19.92C22.7399 19.216 22.5584 18.5633 22.1954 17.962C21.8469 17.3607 21.375 16.884 20.7796 16.532C20.1843 16.1653 19.5381 15.982 18.8411 15.982C18.1441 15.982 17.498 16.1653 16.9026 16.532C16.3218 16.884 15.8499 17.3607 15.4869 17.962C15.1239 18.5633 14.9423 19.216 14.9423 19.92C14.9423 20.624 15.1239 21.2767 15.4869 21.878C15.8499 22.4793 16.3218 22.9633 16.9026 23.33C17.4835 23.682 18.1296 23.858 18.8411 23.858Z" fill="url(#paint2_linear_373_1144)"/>
</g>
<defs>
<filter id="filter0_i_373_1144" x="0" y="0" width="56" height="60" filterUnits="userSpaceOnUse" color-interpolation-filters="sRGB">
<feFlood flood-opacity="0" result="BackgroundImageFix"/>
<feBlend mode="normal" in="SourceGraphic" in2="BackgroundImageFix" result="shape"/>
<feColorMatrix in="SourceAlpha" type="matrix" values="0 0 0 0 0 0 0 0 0 0 0 0 0 0 0 0 0 0 127 0" result="hardAlpha"/>
<feOffset dy="4"/>
<feGaussianBlur stdDeviation="4.6"/>
<feComposite in2="hardAlpha" operator="arithmetic" k2="-1" k3="1"/>
<feColorMatrix type="matrix" values="0 0 0 0 0.899038 0 0 0 0 0.951202 0 0 0 0 1 0 0 0 0.1 0"/>
<feBlend mode="normal" in2="shape" result="effect1_innerShadow_373_1144"/>
</filter>
<linearGradient id="paint0_linear_373_1144" x1="28" y1="0" x2="28" y2="56" gradientUnits="userSpaceOnUse">
<stop stop-color="white" stop-opacity="0.1"/>
<stop offset="1" stop-color="white" stop-opacity="0.02"/>
</linearGradient>
<linearGradient id="paint1_linear_373_1144" x1="28" y1="0" x2="28" y2="56" gradientUnits="userSpaceOnUse">
<stop stop-color="white"/>
<stop offset="1" stop-color="white" stop-opacity="0.49"/>
</linearGradient>
<linearGradient id="paint2_linear_373_1144" x1="11" y1="12" x2="43.9853" y2="45.9849" gradientUnits="userSpaceOnUse">
<stop stop-color="#F1F4FE"/>
<stop offset="0.495192" stop-color="#DFE9FE"/>
<stop offset="1" stop-color="#CADDFF"/>
</linearGradient>
</defs>
</svg>
