<svg width="56" height="56" viewBox="0 0 56 56" fill="none" xmlns="http://www.w3.org/2000/svg">
<g filter="url(#filter0_i_373_1169)">
<rect width="56" height="56" rx="12" fill="url(#paint0_linear_373_1169)"/>
<rect x="0.5" y="0.5" width="55" height="55" rx="11.5" stroke="url(#paint1_linear_373_1169)" style="mix-blend-mode:soft-light"/>
<path d="M29.3752 31.7156C29.0521 31.3925 29.0521 30.8685 29.3752 30.5454L30.5454 29.3752C30.8685 29.0521 31.3925 29.0521 31.7156 29.3752L45.7576 43.4173C46.0808 43.7404 46.0808 44.2643 45.7576 44.5875L44.5875 45.7576C44.2643 46.0808 43.7404 46.0808 43.4173 45.7576L29.3752 31.7156Z" fill="url(#paint2_linear_373_1169)"/>
<path d="M11.8227 34.0559C11.4995 33.7328 11.4995 33.2089 11.8227 32.8858L32.8858 11.8227C33.2089 11.4995 33.7328 11.4995 34.0559 11.8227L39.9068 17.6735C40.2299 17.9967 40.2299 18.5206 39.9068 18.8437L18.8437 39.9068C18.5206 40.2299 17.9967 40.2299 17.6735 39.9068L11.8227 34.0559Z" fill="url(#paint3_linear_373_1169)"/>
<path d="M30.4451 12.8925C30.1796 12.6271 30.1262 12.2161 30.3149 11.8916L31.1753 10.4116C31.4482 9.94218 32.0917 9.85845 32.4757 10.2424L41.487 19.2538C41.871 19.6377 41.7873 20.2812 41.3178 20.5542L39.8379 21.4146C39.5133 21.6033 39.1024 21.5498 38.8369 21.2843L30.4451 12.8925Z" fill="url(#paint4_linear_373_1169)"/>
<path d="M10.2424 32.4757C9.85845 32.0917 9.94218 31.4482 10.4116 31.1753L11.8916 30.3149C12.2161 30.1262 12.6271 30.1796 12.8925 30.4451L21.2843 38.8369C21.5498 39.1024 21.6033 39.5133 21.4146 39.8379L20.5542 41.3178C20.2812 41.7873 19.6377 41.871 19.2538 41.487L10.2424 32.4757Z" fill="url(#paint5_linear_373_1169)"/>
</g>
<defs>
<filter id="filter0_i_373_1169" x="0" y="0" width="56" height="60" filterUnits="userSpaceOnUse" color-interpolation-filters="sRGB">
<feFlood flood-opacity="0" result="BackgroundImageFix"/>
<feBlend mode="normal" in="SourceGraphic" in2="BackgroundImageFix" result="shape"/>
<feColorMatrix in="SourceAlpha" type="matrix" values="0 0 0 0 0 0 0 0 0 0 0 0 0 0 0 0 0 0 127 0" result="hardAlpha"/>
<feOffset dy="4"/>
<feGaussianBlur stdDeviation="4.6"/>
<feComposite in2="hardAlpha" operator="arithmetic" k2="-1" k3="1"/>
<feColorMatrix type="matrix" values="0 0 0 0 0.899038 0 0 0 0 0.951202 0 0 0 0 1 0 0 0 0.1 0"/>
<feBlend mode="normal" in2="shape" result="effect1_innerShadow_373_1169"/>
</filter>
<linearGradient id="paint0_linear_373_1169" x1="28" y1="0" x2="28" y2="56" gradientUnits="userSpaceOnUse">
<stop stop-color="white" stop-opacity="0.1"/>
<stop offset="1" stop-color="white" stop-opacity="0.02"/>
</linearGradient>
<linearGradient id="paint1_linear_373_1169" x1="28" y1="0" x2="28" y2="56" gradientUnits="userSpaceOnUse">
<stop stop-color="white"/>
<stop offset="1" stop-color="white" stop-opacity="0.49"/>
</linearGradient>
<linearGradient id="paint2_linear_373_1169" x1="10" y1="10" x2="46" y2="46" gradientUnits="userSpaceOnUse">
<stop stop-color="#F1F4FE"/>
<stop offset="0.495192" stop-color="#DFE9FE"/>
<stop offset="1" stop-color="#CADDFF"/>
</linearGradient>
<linearGradient id="paint3_linear_373_1169" x1="10" y1="10" x2="46" y2="46" gradientUnits="userSpaceOnUse">
<stop stop-color="#F1F4FE"/>
<stop offset="0.495192" stop-color="#DFE9FE"/>
<stop offset="1" stop-color="#CADDFF"/>
</linearGradient>
<linearGradient id="paint4_linear_373_1169" x1="10" y1="10" x2="46" y2="46" gradientUnits="userSpaceOnUse">
<stop stop-color="#F1F4FE"/>
<stop offset="0.495192" stop-color="#DFE9FE"/>
<stop offset="1" stop-color="#CADDFF"/>
</linearGradient>
<linearGradient id="paint5_linear_373_1169" x1="10" y1="10" x2="46" y2="46" gradientUnits="userSpaceOnUse">
<stop stop-color="#F1F4FE"/>
<stop offset="0.495192" stop-color="#DFE9FE"/>
<stop offset="1" stop-color="#CADDFF"/>
</linearGradient>
</defs>
</svg>
