<svg width="56" height="56" viewBox="0 0 56 56" fill="none" xmlns="http://www.w3.org/2000/svg">
<g filter="url(#filter0_i_373_1159)">
<rect width="56" height="56" rx="12" fill="url(#paint0_linear_373_1159)"/>
<rect x="0.5" y="0.5" width="55" height="55" rx="11.5" stroke="url(#paint1_linear_373_1159)" style="mix-blend-mode:soft-light"/>
<path d="M17.5 45H38.5C38.8115 45 39.109 44.949 39.396 44.8742L32.8178 38.4839C31.3908 39.4073 29.7146 39.9 28 39.9C23.1753 39.9 19.25 36.0869 19.25 31.4C19.25 26.7131 23.1753 22.9 28 22.9C32.8247 22.9 36.75 26.7131 36.75 31.4C36.7502 33.0656 36.243 34.694 35.2922 36.0801L41.8705 42.4704C41.9475 42.1916 42 41.9026 42 41.6V21.2L31.5 11H17.5C16.5717 11 15.6815 11.3582 15.0251 11.9958C14.3687 12.6335 14 13.4983 14 14.4V41.6C14 42.5017 14.3687 43.3665 15.0251 44.0042C15.6815 44.6418 16.5717 45 17.5 45Z" fill="url(#paint2_linear_373_1159)"/>
<path d="M28 36.5C30.8995 36.5 33.25 34.2167 33.25 31.4C33.25 28.5833 30.8995 26.3 28 26.3C25.1005 26.3 22.75 28.5833 22.75 31.4C22.75 34.2167 25.1005 36.5 28 36.5Z" fill="url(#paint3_linear_373_1159)"/>
</g>
<defs>
<filter id="filter0_i_373_1159" x="0" y="0" width="56" height="60" filterUnits="userSpaceOnUse" color-interpolation-filters="sRGB">
<feFlood flood-opacity="0" result="BackgroundImageFix"/>
<feBlend mode="normal" in="SourceGraphic" in2="BackgroundImageFix" result="shape"/>
<feColorMatrix in="SourceAlpha" type="matrix" values="0 0 0 0 0 0 0 0 0 0 0 0 0 0 0 0 0 0 127 0" result="hardAlpha"/>
<feOffset dy="4"/>
<feGaussianBlur stdDeviation="4.6"/>
<feComposite in2="hardAlpha" operator="arithmetic" k2="-1" k3="1"/>
<feColorMatrix type="matrix" values="0 0 0 0 0.899038 0 0 0 0 0.951202 0 0 0 0 1 0 0 0 0.1 0"/>
<feBlend mode="normal" in2="shape" result="effect1_innerShadow_373_1159"/>
</filter>
<linearGradient id="paint0_linear_373_1159" x1="28" y1="0" x2="28" y2="56" gradientUnits="userSpaceOnUse">
<stop stop-color="white" stop-opacity="0.1"/>
<stop offset="1" stop-color="white" stop-opacity="0.02"/>
</linearGradient>
<linearGradient id="paint1_linear_373_1159" x1="28" y1="0" x2="28" y2="56" gradientUnits="userSpaceOnUse">
<stop stop-color="white"/>
<stop offset="1" stop-color="white" stop-opacity="0.49"/>
</linearGradient>
<linearGradient id="paint2_linear_373_1159" x1="14" y1="11" x2="47.3691" y2="38.4804" gradientUnits="userSpaceOnUse">
<stop stop-color="#F1F4FE"/>
<stop offset="0.495192" stop-color="#DFE9FE"/>
<stop offset="1" stop-color="#CADDFF"/>
</linearGradient>
<linearGradient id="paint3_linear_373_1159" x1="14" y1="11" x2="47.3691" y2="38.4804" gradientUnits="userSpaceOnUse">
<stop stop-color="#F1F4FE"/>
<stop offset="0.495192" stop-color="#DFE9FE"/>
<stop offset="1" stop-color="#CADDFF"/>
</linearGradient>
</defs>
</svg>
