<svg width="183" height="321" viewBox="0 0 183 321" fill="none" xmlns="http://www.w3.org/2000/svg">
<g filter="url(#filter0_d_80_8)">
<path d="M122 0C54.7329 0 0.00124202 54.3733 0.00124202 121.124C-0.441004 218.766 117.364 299.728 122 303C122 303 244.441 218.766 243.999 121.2C243.999 54.3734 189.267 0 122 0ZM122 181.8C88.2978 181.8 61.0006 154.682 61.0006 121.2C61.0006 87.7185 88.2978 60.6 122 60.6C155.702 60.6 182.999 87.7185 182.999 121.2C182.999 154.682 155.702 181.8 122 181.8Z" fill="url(#paint0_radial_80_8)" fill-opacity="0.5" shape-rendering="crispEdges"/>
</g>
<defs>
<filter id="filter0_d_80_8" x="0" y="0" width="273" height="321" filterUnits="userSpaceOnUse" color-interpolation-filters="sRGB">
<feFlood flood-opacity="0" result="BackgroundImageFix"/>
<feColorMatrix in="SourceAlpha" type="matrix" values="0 0 0 0 0 0 0 0 0 0 0 0 0 0 0 0 0 0 127 0" result="hardAlpha"/>
<feOffset dx="22" dy="11"/>
<feGaussianBlur stdDeviation="3.5"/>
<feComposite in2="hardAlpha" operator="out"/>
<feColorMatrix type="matrix" values="0 0 0 0 0 0 0 0 0 0 0 0 0 0 0 0 0 0 0.09 0"/>
<feBlend mode="normal" in2="BackgroundImageFix" result="effect1_dropShadow_80_8"/>
<feBlend mode="normal" in="SourceGraphic" in2="effect1_dropShadow_80_8" result="shape"/>
</filter>
<radialGradient id="paint0_radial_80_8" cx="0" cy="0" r="1" gradientUnits="userSpaceOnUse" gradientTransform="translate(182.076 286.572) rotate(-120.823) scale(333.706 402.902)">
<stop stop-color="#E0EFFF" stop-opacity="0"/>
<stop offset="0.36434" stop-color="#E0EFFF" stop-opacity="0.04"/>
<stop offset="1" stop-color="#E0EFFF" stop-opacity="0.23"/>
</radialGradient>
</defs>
</svg>
