<svg width="40" height="40" viewBox="0 0 40 40" fill="none" xmlns="http://www.w3.org/2000/svg">
<path d="M20 0C8.972 0 0 8.972 0 20C0 31.028 8.972 40 20 40C31.028 40 40 31.028 40 20C40 8.972 31.028 0 20 0ZM20 36C11.178 36 4 28.822 4 20C4 11.178 11.178 4 20 4C28.822 4 36 11.178 36 20C36 28.822 28.822 36 20 36Z" fill="#2A2A2A"/>
<path d="M25.658 25.656C24.9269 26.3847 24.0635 26.9671 23.114 27.372C21.4046 28.0937 19.4976 28.199 17.7191 27.67C15.9406 27.141 14.4011 26.0106 13.364 24.472L10.048 26.71C10.9129 27.9863 12.0132 29.0859 13.29 29.95C14.5893 30.8286 16.0492 31.4424 17.586 31.756C19.1796 32.081 20.8224 32.081 22.416 31.756C23.9527 31.4419 25.4125 30.8282 26.712 29.95C27.338 29.526 27.936 29.034 28.484 28.488C29.028 27.946 29.524 27.346 29.952 26.71L26.636 24.472C26.3486 24.897 26.0211 25.2935 25.658 25.656Z" fill="#2A2A2A"/>
<path d="M13 20C14.6569 20 16 18.6569 16 17C16 15.3431 14.6569 14 13 14C11.3431 14 10 15.3431 10 17C10 18.6569 11.3431 20 13 20Z" fill="#2A2A2A"/>
<path d="M26.986 19.972C28.6351 19.972 29.972 18.6351 29.972 16.986C29.972 15.3369 28.6351 14 26.986 14C25.3369 14 24 15.3369 24 16.986C24 18.6351 25.3369 19.972 26.986 19.972Z" fill="#2A2A2A"/>
</svg>
