<svg width="37" height="40" viewBox="0 0 37 40" fill="none" xmlns="http://www.w3.org/2000/svg">
<path d="M18.5 18.8235C23.6086 18.8235 27.75 14.6097 27.75 9.41177C27.75 4.21379 23.6086 0 18.5 0C13.3914 0 9.25 4.21379 9.25 9.41177C9.25 14.6097 13.3914 18.8235 18.5 18.8235Z" fill="#2A2A2A"/>
<path d="M32.375 23.5294H4.625C3.39837 23.5294 2.22199 24.0252 1.35463 24.9077C0.487276 25.7903 0 26.9872 0 28.2353L0 37C0 38.6569 1.34315 40 3 40H34C35.6569 40 37 38.6569 37 37V28.2353C37 26.9872 36.5127 25.7903 35.6454 24.9077C34.778 24.0252 33.6016 23.5294 32.375 23.5294Z" fill="#2A2A2A"/>
</svg>
