<svg width="40" height="40" viewBox="0 0 40 40" fill="none" xmlns="http://www.w3.org/2000/svg">
<path d="M38.968 10.2494L20.9236 0.24902C20.6271 0.0856657 20.2941 0 19.9556 0C19.6171 0 19.2841 0.0856657 18.9876 0.24902L1.03118 10.1694C0.719238 10.3421 0.459149 10.5951 0.277845 10.9021C0.0965405 11.2092 0.000614907 11.5591 2.94646e-06 11.9157C-0.000609014 12.2723 0.0941144 12.6225 0.274364 12.9302C0.454613 13.2378 0.713833 13.4917 1.02518 13.6655L19.0696 23.7459C19.3666 23.9128 19.7016 24.0006 20.0423 24.001C20.3831 24.0013 20.7182 23.9142 21.0156 23.7479L38.972 13.7475C39.284 13.574 39.5438 13.3203 39.7245 13.0125C39.9053 12.7047 40.0004 12.3542 40 11.9973C39.9996 11.6403 39.9037 11.29 39.7222 10.9827C39.5407 10.6753 39.2803 10.4221 38.968 10.2494Z" fill="#2A2A2A"/>
<path d="M19.9996 27.712L2.96922 18.2517L1.02718 21.7478L19.0276 31.7482C19.3246 31.9131 19.6588 31.9997 19.9986 31.9997C20.3384 31.9997 20.6726 31.9131 20.9696 31.7482L38.97 21.7478L37.028 18.2517L19.9996 27.712Z" fill="#2A2A2A"/>
<path d="M19.9996 35.7123L2.96922 26.252L1.02718 29.7481L19.0276 39.7485C19.3246 39.9134 19.6588 40 19.9986 40C20.3384 40 20.6726 39.9134 20.9696 39.7485L38.97 29.7481L37.028 26.252L19.9996 35.7123Z" fill="#2A2A2A"/>
</svg>
