<svg width="68" height="80" viewBox="0 0 68 80" fill="none" xmlns="http://www.w3.org/2000/svg">
<g filter="url(#filter0_d_215_635)">
<path d="M50.2341 29.6875H23.1561C22.8602 29.6875 22.6065 29.7917 22.3951 30C22.1837 30.2083 22.078 30.4583 22.078 30.75C22.078 31.0417 22.1837 31.2917 22.3951 31.5C22.6065 31.7083 22.8602 31.8125 23.1561 31.8125H50.2341C50.5301 31.8125 50.7837 31.7083 50.9951 31.5C51.2065 31.2917 51.3122 31.0417 51.3122 30.75C51.3122 30.4583 51.2065 30.2083 50.9951 30C50.7837 29.7917 50.5301 29.6875 50.2341 29.6875ZM23.1561 23.25H34C34.2959 23.25 34.5496 23.1458 34.761 22.9375C34.9724 22.7292 35.078 22.4792 35.078 22.1875C35.078 21.8958 34.9724 21.6458 34.761 21.4375C34.5496 21.2292 34.2959 21.125 34 21.125H23.1561C22.8602 21.125 22.6065 21.2292 22.3951 21.4375C22.1837 21.6458 22.078 21.8958 22.078 22.1875C22.078 22.4792 22.1837 22.7292 22.3951 22.9375C22.6065 23.1458 22.8602 23.25 23.1561 23.25ZM50.2341 38.1875H23.1561C22.8602 38.1875 22.6065 38.2917 22.3951 38.5C22.1837 38.7083 22.078 38.9583 22.078 39.25C22.078 39.5417 22.1837 39.7917 22.3951 40C22.6065 40.2083 22.8602 40.3125 23.1561 40.3125H50.2341C50.5301 40.3125 50.7837 40.2083 50.9951 40C51.2065 39.7917 51.3122 39.5417 51.3122 39.25C51.3122 38.9583 51.2065 38.7083 50.9951 38.5C50.7837 38.2917 50.5301 38.1875 50.2341 38.1875ZM50.2341 46.75H23.1561C22.8602 46.75 22.6065 46.8542 22.3951 47.0625C22.1837 47.2708 22.078 47.5208 22.078 47.8125C22.078 48.1042 22.1837 48.3542 22.3951 48.5625C22.6065 48.7708 22.8602 48.875 23.1561 48.875H50.2341C50.5301 48.875 50.7837 48.7708 50.9951 48.5625C51.2065 48.3542 51.3122 48.1042 51.3122 47.8125C51.3122 47.5208 51.2065 47.2708 50.9951 47.0625C50.7837 46.8542 50.5301 46.75 50.2341 46.75ZM50.2341 55.25H23.1561C22.8602 55.25 22.6065 55.3542 22.3951 55.5625C22.1837 55.7708 22.078 56.0208 22.078 56.3125C22.078 56.6042 22.1837 56.8542 22.3951 57.0625C22.6065 57.2708 22.8602 57.375 23.1561 57.375H50.2341C50.5301 57.375 50.7837 57.2708 50.9951 57.0625C51.2065 56.8542 51.3122 56.6042 51.3122 56.3125C51.3122 56.0208 51.2065 55.7708 50.9951 55.5625C50.7837 55.3542 50.5301 55.25 50.2341 55.25ZM54.5463 18.5625V3H8V61.6875H13.4537V67H60V23.875L54.5463 18.5625ZM44.8439 12L56.2585 23.25H44.8439V12ZM10.2195 59.5625V5.125H52.3902V16.4375L44.2098 8.3125H13.4537V59.5625H10.2195ZM15.6098 64.875V10.4375H42.6878V25.375H57.7805V64.875H15.6098Z" fill="url(#paint0_linear_215_635)"/>
</g>
<defs>
<filter id="filter0_d_215_635" x="0.3" y="0.3" width="67.4" height="79.4" filterUnits="userSpaceOnUse" color-interpolation-filters="sRGB">
<feFlood flood-opacity="0" result="BackgroundImageFix"/>
<feColorMatrix in="SourceAlpha" type="matrix" values="0 0 0 0 0 0 0 0 0 0 0 0 0 0 0 0 0 0 127 0" result="hardAlpha"/>
<feOffset dy="5"/>
<feGaussianBlur stdDeviation="3.85"/>
<feComposite in2="hardAlpha" operator="out"/>
<feColorMatrix type="matrix" values="0 0 0 0 0.788235 0 0 0 0 0.764706 0 0 0 0 0.917647 0 0 0 0.29 0"/>
<feBlend mode="normal" in2="BackgroundImageFix" result="effect1_dropShadow_215_635"/>
<feBlend mode="normal" in="SourceGraphic" in2="effect1_dropShadow_215_635" result="shape"/>
</filter>
<linearGradient id="paint0_linear_215_635" x1="8" y1="3" x2="70.6447" y2="53.8988" gradientUnits="userSpaceOnUse">
<stop stop-color="#F1F8FE"/>
<stop offset="0.519231" stop-color="#DAECFF"/>
<stop offset="1" stop-color="#CAE4FF"/>
</linearGradient>
</defs>
</svg>
