<svg width="80" height="80" viewBox="0 0 80 80" fill="none" xmlns="http://www.w3.org/2000/svg">
<g filter="url(#filter0_d_215_640)">
<path d="M55.7681 63.8309C52.1095 63.8309 48.9919 62.5427 46.4155 59.9662C43.839 57.3897 42.5507 54.2979 42.5507 50.6908C42.5507 47.0322 43.839 43.9147 46.4155 41.3382C48.9919 38.7617 52.1095 37.4734 55.7681 37.4734C59.4267 37.4734 62.5314 38.7617 65.0821 41.3382C67.6328 43.9147 68.9082 47.0322 68.9082 50.6908C68.9082 54.2979 67.6328 57.3897 65.0821 59.9662C62.5314 62.5427 59.4267 63.8309 55.7681 63.8309ZM55.7681 66.2271C57.8808 66.2271 59.8905 65.8148 61.7971 64.9903C63.7037 64.1659 65.3527 63.058 66.744 61.6667C68.1353 60.2754 69.2432 58.6264 70.0676 56.7198C70.8921 54.8132 71.3043 52.8035 71.3043 50.6908C71.3043 48.5266 70.8921 46.5169 70.0676 44.6618C69.2432 42.7552 68.1353 41.1063 66.744 39.715C65.3527 38.3237 63.7037 37.2158 61.7971 36.3913C59.8905 35.5668 57.8808 35.1546 55.7681 35.1546C53.6039 35.1546 51.5942 35.5668 49.7391 36.3913C47.8325 37.2158 46.1836 38.3237 44.7923 39.715C43.401 41.1063 42.2931 42.7552 41.4686 44.6618C40.6441 46.5169 40.2319 48.5266 40.2319 50.6908C40.2319 52.8035 40.6441 54.8132 41.4686 56.7198C42.2931 58.6264 43.401 60.2754 44.7923 61.6667C46.1836 63.058 47.8325 64.1659 49.7391 64.9903C51.5942 65.8148 53.6039 66.2271 55.7681 66.2271ZM24.6957 32.8357C21.0886 32.8357 17.9968 31.5475 15.4203 28.971C12.8438 26.3945 11.5556 23.277 11.5556 19.6184C11.5556 16.0113 12.8438 12.9195 15.4203 10.343C17.9968 7.76651 21.0886 6.47826 24.6957 6.47826C28.3543 6.47826 31.4718 7.76651 34.0483 10.343C36.6248 12.9195 37.913 16.0113 37.913 19.6184C37.913 23.277 36.6248 26.3945 34.0483 28.971C31.4718 31.5475 28.3543 32.8357 24.6957 32.8357ZM24.6957 35.1546C26.8599 35.1546 28.8696 34.7423 30.7246 33.9179C32.6312 33.0934 34.2802 31.9855 35.6715 30.5942C37.0628 29.2029 38.1707 27.5539 38.9952 25.6473C39.8196 23.7923 40.2319 21.7826 40.2319 19.6184C40.2319 17.5056 39.8196 15.496 38.9952 13.5894C38.1707 11.6828 37.0628 10.0338 35.6715 8.64251C34.2802 7.25121 32.6312 6.14332 30.7246 5.31884C28.8696 4.49436 26.8599 4.08213 24.6957 4.08213C22.5829 4.08213 20.5733 4.49436 18.6667 5.31884C16.8116 6.14332 15.1755 7.25121 13.7585 8.64251C12.3414 10.0338 11.2206 11.6828 10.3961 13.5894C9.57166 15.496 9.15942 17.5056 9.15942 19.6184C9.15942 21.7826 9.57166 23.7923 10.3961 25.6473C11.2206 27.5539 12.3414 29.2029 13.7585 30.5942C15.1755 31.9855 16.8116 33.0934 18.6667 33.9179C20.5733 34.7423 22.5829 35.1546 24.6957 35.1546ZM23.5362 67H9.54589C9.13366 67 8.77295 66.8454 8.46377 66.5362C8.15459 66.2271 8 65.8663 8 65.4541V51.4638C8 51.0515 8.15459 50.6908 8.46377 50.3816C8.77295 50.0725 9.13366 49.9179 9.54589 49.9179C10.0097 49.9179 10.3961 50.0725 10.7053 50.3816C11.0145 50.6908 11.1691 51.0515 11.1691 51.4638V61.6667L69.7585 3L72 5.24155L13.3333 63.8309H23.5362C24 63.8309 24.3736 63.9855 24.657 64.2947C24.9404 64.6039 25.0821 64.9903 25.0821 65.4541C25.0821 65.8663 24.9404 66.2271 24.657 66.5362C24.3736 66.8454 24 67 23.5362 67Z" fill="url(#paint0_linear_215_640)"/>
</g>
<defs>
<filter id="filter0_d_215_640" x="0.3" y="0.3" width="79.4" height="79.4" filterUnits="userSpaceOnUse" color-interpolation-filters="sRGB">
<feFlood flood-opacity="0" result="BackgroundImageFix"/>
<feColorMatrix in="SourceAlpha" type="matrix" values="0 0 0 0 0 0 0 0 0 0 0 0 0 0 0 0 0 0 127 0" result="hardAlpha"/>
<feOffset dy="5"/>
<feGaussianBlur stdDeviation="3.85"/>
<feComposite in2="hardAlpha" operator="out"/>
<feColorMatrix type="matrix" values="0 0 0 0 0.788235 0 0 0 0 0.764706 0 0 0 0 0.917647 0 0 0 0.29 0"/>
<feBlend mode="normal" in2="BackgroundImageFix" result="effect1_dropShadow_215_640"/>
<feBlend mode="normal" in="SourceGraphic" in2="effect1_dropShadow_215_640" result="shape"/>
</filter>
<linearGradient id="paint0_linear_215_640" x1="8" y1="3" x2="72" y2="67" gradientUnits="userSpaceOnUse">
<stop stop-color="#F1F8FE"/>
<stop offset="0.519231" stop-color="#DAECFF"/>
<stop offset="1" stop-color="#CAE4FF"/>
</linearGradient>
</defs>
</svg>
